<mxfile host="Electron" modified="2023-12-10T14:55:30.828Z" agent="Mozilla/5.0 (Windows NT 10.0; Win64; x64) AppleWebKit/537.36 (KHTML, like Gecko) draw.io/22.1.2 Chrome/114.0.5735.289 Electron/25.9.4 Safari/537.36" etag="0jbjza589IEVJH7w2BRb" version="22.1.2" type="device">
  <diagram name="Page-1" id="Rt3XKLxJc3b8QOI7InUt">
    <mxGraphModel dx="1674" dy="836" grid="1" gridSize="10" guides="1" tooltips="1" connect="1" arrows="1" fold="1" page="1" pageScale="1" pageWidth="850" pageHeight="1100" math="0" shadow="0">
      <root>
        <mxCell id="0" />
        <mxCell id="1" parent="0" />
        <mxCell id="5Uhh3eDOOOBOVCzr4W_w-1" value="&lt;font style=&quot;font-size: 18px;&quot;&gt;Khách hàng&lt;/font&gt;" style="shape=umlActor;verticalLabelPosition=bottom;verticalAlign=top;html=1;" parent="1" vertex="1">
          <mxGeometry x="70" y="360" width="40" height="70" as="geometry" />
        </mxCell>
        <mxCell id="5Uhh3eDOOOBOVCzr4W_w-2" value="" style="rounded=0;whiteSpace=wrap;html=1;" parent="1" vertex="1">
          <mxGeometry x="170" y="10" width="1105" height="1050" as="geometry" />
        </mxCell>
        <mxCell id="5Uhh3eDOOOBOVCzr4W_w-4" value="&lt;font style=&quot;font-size: 14px;&quot;&gt;System&lt;/font&gt;" style="text;html=1;strokeColor=none;fillColor=none;align=center;verticalAlign=middle;whiteSpace=wrap;rounded=0;" parent="1" vertex="1">
          <mxGeometry x="710" y="10" width="140" height="30" as="geometry" />
        </mxCell>
        <mxCell id="5Uhh3eDOOOBOVCzr4W_w-5" value="&lt;font style=&quot;font-size: 18px;&quot;&gt;Đăng nhập&lt;/font&gt;" style="ellipse;whiteSpace=wrap;html=1;" parent="1" vertex="1">
          <mxGeometry x="500" y="360" width="140" height="70" as="geometry" />
        </mxCell>
        <mxCell id="5Uhh3eDOOOBOVCzr4W_w-7" value="&lt;span style=&quot;font-size: 18px;&quot;&gt;Đăng Ký&lt;/span&gt;" style="ellipse;whiteSpace=wrap;html=1;" parent="1" vertex="1">
          <mxGeometry x="820" y="360" width="140" height="70" as="geometry" />
        </mxCell>
        <mxCell id="5Uhh3eDOOOBOVCzr4W_w-8" value="&lt;font style=&quot;font-size: 18px;&quot;&gt;xem thông tin sản phẩm&lt;/font&gt;" style="ellipse;whiteSpace=wrap;html=1;" parent="1" vertex="1">
          <mxGeometry x="310" y="100" width="190" height="70" as="geometry" />
        </mxCell>
        <mxCell id="5Uhh3eDOOOBOVCzr4W_w-9" value="&lt;font style=&quot;font-size: 18px;&quot;&gt;Lọc sản phẩm theo danh mục&amp;nbsp;&lt;/font&gt;" style="ellipse;whiteSpace=wrap;html=1;" parent="1" vertex="1">
          <mxGeometry x="460" y="190" width="190" height="90" as="geometry" />
        </mxCell>
        <mxCell id="5Uhh3eDOOOBOVCzr4W_w-10" value="&lt;font style=&quot;font-size: 18px;&quot;&gt;Quản lý giỏ hàng&lt;/font&gt;" style="ellipse;whiteSpace=wrap;html=1;" parent="1" vertex="1">
          <mxGeometry x="360" y="500" width="160" height="70" as="geometry" />
        </mxCell>
        <mxCell id="5Uhh3eDOOOBOVCzr4W_w-11" value="&lt;font style=&quot;font-size: 18px;&quot;&gt;Thêm sản phẩm vào giỏ hàng&lt;/font&gt;" style="ellipse;whiteSpace=wrap;html=1;" parent="1" vertex="1">
          <mxGeometry x="710" y="470" width="240" height="100" as="geometry" />
        </mxCell>
        <mxCell id="5Uhh3eDOOOBOVCzr4W_w-12" value="&lt;font style=&quot;font-size: 18px;&quot;&gt;Cập nhật giỏ hàng&lt;/font&gt;" style="ellipse;whiteSpace=wrap;html=1;" parent="1" vertex="1">
          <mxGeometry x="620" y="630" width="140" height="70" as="geometry" />
        </mxCell>
        <mxCell id="5Uhh3eDOOOBOVCzr4W_w-13" value="&lt;font style=&quot;font-size: 18px;&quot;&gt;Theo dõi đơn hàng&lt;/font&gt;" style="ellipse;whiteSpace=wrap;html=1;" parent="1" vertex="1">
          <mxGeometry x="410" y="880" width="140" height="70" as="geometry" />
        </mxCell>
        <mxCell id="5Uhh3eDOOOBOVCzr4W_w-14" value="" style="endArrow=none;html=1;rounded=0;exitX=0;exitY=0.5;exitDx=0;exitDy=0;" parent="1" source="5Uhh3eDOOOBOVCzr4W_w-8" edge="1">
          <mxGeometry width="50" height="50" relative="1" as="geometry">
            <mxPoint x="330" y="510" as="sourcePoint" />
            <mxPoint x="120" y="360" as="targetPoint" />
          </mxGeometry>
        </mxCell>
        <mxCell id="5Uhh3eDOOOBOVCzr4W_w-15" value="" style="endArrow=none;html=1;rounded=0;entryX=0;entryY=0.5;entryDx=0;entryDy=0;" parent="1" target="5Uhh3eDOOOBOVCzr4W_w-9" edge="1">
          <mxGeometry width="50" height="50" relative="1" as="geometry">
            <mxPoint x="120" y="380" as="sourcePoint" />
            <mxPoint x="380" y="460" as="targetPoint" />
          </mxGeometry>
        </mxCell>
        <mxCell id="5Uhh3eDOOOBOVCzr4W_w-16" value="" style="endArrow=none;html=1;rounded=0;entryX=0;entryY=0.5;entryDx=0;entryDy=0;" parent="1" target="5Uhh3eDOOOBOVCzr4W_w-5" edge="1">
          <mxGeometry width="50" height="50" relative="1" as="geometry">
            <mxPoint x="120" y="395" as="sourcePoint" />
            <mxPoint x="380" y="460" as="targetPoint" />
          </mxGeometry>
        </mxCell>
        <mxCell id="5Uhh3eDOOOBOVCzr4W_w-17" value="" style="endArrow=none;html=1;rounded=0;entryX=0;entryY=0.5;entryDx=0;entryDy=0;" parent="1" target="5Uhh3eDOOOBOVCzr4W_w-10" edge="1">
          <mxGeometry width="50" height="50" relative="1" as="geometry">
            <mxPoint x="120" y="410" as="sourcePoint" />
            <mxPoint x="380" y="460" as="targetPoint" />
            <Array as="points" />
          </mxGeometry>
        </mxCell>
        <mxCell id="5Uhh3eDOOOBOVCzr4W_w-18" value="" style="endArrow=none;html=1;rounded=0;exitX=0;exitY=0.5;exitDx=0;exitDy=0;" parent="1" source="5Uhh3eDOOOBOVCzr4W_w-13" edge="1">
          <mxGeometry width="50" height="50" relative="1" as="geometry">
            <mxPoint x="330" y="510" as="sourcePoint" />
            <mxPoint x="120" y="420" as="targetPoint" />
          </mxGeometry>
        </mxCell>
        <mxCell id="5Uhh3eDOOOBOVCzr4W_w-19" value="&lt;font style=&quot;font-size: 14px;&quot;&gt;&amp;lt;&amp;lt;include&amp;gt;&amp;gt;&lt;/font&gt;" style="endArrow=open;endSize=12;dashed=1;html=1;rounded=0;entryX=0;entryY=0.5;entryDx=0;entryDy=0;exitX=1;exitY=0.5;exitDx=0;exitDy=0;" parent="1" source="5Uhh3eDOOOBOVCzr4W_w-5" target="5Uhh3eDOOOBOVCzr4W_w-7" edge="1">
          <mxGeometry width="160" relative="1" as="geometry">
            <mxPoint x="300" y="490" as="sourcePoint" />
            <mxPoint x="460" y="490" as="targetPoint" />
            <mxPoint as="offset" />
          </mxGeometry>
        </mxCell>
        <mxCell id="5Uhh3eDOOOBOVCzr4W_w-20" value="&lt;font style=&quot;font-size: 14px;&quot;&gt;&amp;lt;&amp;lt;include&amp;gt;&amp;gt;&lt;/font&gt;" style="endArrow=open;endSize=12;dashed=1;html=1;rounded=0;" parent="1" source="5Uhh3eDOOOBOVCzr4W_w-10" target="5Uhh3eDOOOBOVCzr4W_w-5" edge="1">
          <mxGeometry width="160" relative="1" as="geometry">
            <mxPoint x="1100" y="510" as="sourcePoint" />
            <mxPoint x="528" y="425" as="targetPoint" />
          </mxGeometry>
        </mxCell>
        <mxCell id="5Uhh3eDOOOBOVCzr4W_w-21" value="&lt;font style=&quot;font-size: 14px;&quot;&gt;&amp;lt;&amp;lt;include&amp;gt;&amp;gt;&lt;/font&gt;" style="endArrow=open;endSize=12;dashed=1;html=1;rounded=0;" parent="1" source="5Uhh3eDOOOBOVCzr4W_w-13" edge="1">
          <mxGeometry width="160" relative="1" as="geometry">
            <mxPoint x="1120" y="510" as="sourcePoint" />
            <mxPoint x="570" y="430" as="targetPoint" />
          </mxGeometry>
        </mxCell>
        <mxCell id="5Uhh3eDOOOBOVCzr4W_w-22" value="&lt;font style=&quot;font-size: 18px;&quot;&gt;Đăng xuất&lt;/font&gt;" style="ellipse;whiteSpace=wrap;html=1;" parent="1" vertex="1">
          <mxGeometry x="720" y="250" width="140" height="70" as="geometry" />
        </mxCell>
        <mxCell id="5Uhh3eDOOOBOVCzr4W_w-23" value="&lt;font style=&quot;font-size: 14px;&quot;&gt;&amp;lt;&amp;lt;include&amp;gt;&amp;gt;&lt;/font&gt;" style="endArrow=open;endSize=12;dashed=1;html=1;rounded=0;entryX=0;entryY=0.5;entryDx=0;entryDy=0;" parent="1" source="5Uhh3eDOOOBOVCzr4W_w-10" target="5Uhh3eDOOOBOVCzr4W_w-11" edge="1">
          <mxGeometry width="160" relative="1" as="geometry">
            <mxPoint x="1050" y="380" as="sourcePoint" />
            <mxPoint x="1154" y="298" as="targetPoint" />
          </mxGeometry>
        </mxCell>
        <mxCell id="5Uhh3eDOOOBOVCzr4W_w-24" value="&lt;span style=&quot;font-size: 14px;&quot;&gt;&amp;lt;&amp;lt;extend&amp;gt;&amp;gt;&lt;/span&gt;" style="endArrow=open;endSize=12;dashed=1;html=1;rounded=0;" parent="1" source="5Uhh3eDOOOBOVCzr4W_w-12" target="5Uhh3eDOOOBOVCzr4W_w-11" edge="1">
          <mxGeometry width="160" relative="1" as="geometry">
            <mxPoint x="1130" y="530" as="sourcePoint" />
            <mxPoint x="1336" y="515" as="targetPoint" />
          </mxGeometry>
        </mxCell>
        <mxCell id="5Uhh3eDOOOBOVCzr4W_w-25" value="&lt;span style=&quot;font-size: 14px;&quot;&gt;&amp;lt;&amp;lt;extend&amp;gt;&amp;gt;&lt;/span&gt;" style="endArrow=open;endSize=12;dashed=1;html=1;rounded=0;" parent="1" source="5Uhh3eDOOOBOVCzr4W_w-22" target="5Uhh3eDOOOBOVCzr4W_w-5" edge="1">
          <mxGeometry width="160" relative="1" as="geometry">
            <mxPoint x="1190" y="440" as="sourcePoint" />
            <mxPoint x="1279" y="371" as="targetPoint" />
          </mxGeometry>
        </mxCell>
        <mxCell id="edpUSs8hN7W5pZ-8gBGb-1" value="&lt;font style=&quot;font-size: 18px;&quot;&gt;Kiểm tra thông tin&lt;/font&gt;" style="ellipse;whiteSpace=wrap;html=1;" parent="1" vertex="1">
          <mxGeometry x="1050" y="590" width="170" height="80" as="geometry" />
        </mxCell>
        <mxCell id="edpUSs8hN7W5pZ-8gBGb-2" value="&lt;font style=&quot;font-size: 14px;&quot;&gt;&amp;lt;&amp;lt;include&amp;gt;&amp;gt;&lt;/font&gt;" style="endArrow=open;endSize=12;dashed=1;html=1;rounded=0;" parent="1" source="5Uhh3eDOOOBOVCzr4W_w-11" target="edpUSs8hN7W5pZ-8gBGb-1" edge="1">
          <mxGeometry width="160" relative="1" as="geometry">
            <mxPoint x="1530" y="460" as="sourcePoint" />
            <mxPoint x="1710" y="460" as="targetPoint" />
            <mxPoint as="offset" />
          </mxGeometry>
        </mxCell>
        <mxCell id="2fLoMGI1WDdi4XZTSESB-1" value="&lt;span style=&quot;font-size: 18px;&quot;&gt;Hủy đơn hàng&lt;/span&gt;" style="ellipse;whiteSpace=wrap;html=1;" parent="1" vertex="1">
          <mxGeometry x="800" y="880" width="140" height="70" as="geometry" />
        </mxCell>
        <mxCell id="2fLoMGI1WDdi4XZTSESB-3" value="&lt;span style=&quot;font-size: 14px;&quot;&gt;&amp;lt;&amp;lt;extend&amp;gt;&amp;gt;&lt;/span&gt;" style="endArrow=open;endSize=12;dashed=1;html=1;rounded=0;" parent="1" source="2fLoMGI1WDdi4XZTSESB-1" target="5Uhh3eDOOOBOVCzr4W_w-13" edge="1">
          <mxGeometry width="160" relative="1" as="geometry">
            <mxPoint x="60" y="720" as="sourcePoint" />
            <mxPoint x="124" y="652" as="targetPoint" />
          </mxGeometry>
        </mxCell>
        <mxCell id="Dc6FpIAwaK55kDuah258-1" value="&lt;font style=&quot;font-size: 18px;&quot;&gt;Bình luận sản phẩm&lt;/font&gt;" style="ellipse;whiteSpace=wrap;html=1;" vertex="1" parent="1">
          <mxGeometry x="550" y="760" width="140" height="70" as="geometry" />
        </mxCell>
        <mxCell id="Dc6FpIAwaK55kDuah258-2" value="" style="endArrow=none;html=1;rounded=0;entryX=0;entryY=0.5;entryDx=0;entryDy=0;" edge="1" parent="1" target="Dc6FpIAwaK55kDuah258-1">
          <mxGeometry width="50" height="50" relative="1" as="geometry">
            <mxPoint x="120" y="420" as="sourcePoint" />
            <mxPoint x="1670" y="825" as="targetPoint" />
            <Array as="points" />
          </mxGeometry>
        </mxCell>
      </root>
    </mxGraphModel>
  </diagram>
</mxfile>
